<svg xmlns="http://www.w3.org/2000/svg" viewBox="0 0 300 300" fill="none">
  <defs>
    <linearGradient id="grad1" x1="0%" y1="0%" x2="100%" y2="100%">
      <stop offset="0%" style="stop-color:#2D3748;stop-opacity:1" />
      <stop offset="100%" style="stop-color:#4A5568;stop-opacity:1" />
    </linearGradient>
  </defs>
  
  <!-- Fondo circular sutil -->
  <circle cx="150" cy="150" r="140" fill="#f7fafc" opacity="0.5"/>
  
  <!-- Cabeza del gato geométrico -->
  <!-- Orejas -->
  <path d="M 80 80 L 100 50 L 120 80 Z" stroke="url(#grad1)" stroke-width="3" fill="none" stroke-linejoin="round"/>
  <path d="M 180 80 L 200 50 L 220 80 Z" stroke="url(#grad1)" stroke-width="3" fill="none" stroke-linejoin="round"/>
  
  <!-- Parte superior cabeza -->
  <path d="M 120 80 L 150 70 L 180 80" stroke="url(#grad1)" stroke-width="3" fill="none" stroke-linejoin="round"/>
  
  <!-- Lados de la cabeza -->
  <path d="M 80 80 L 70 150 L 85 180" stroke="url(#grad1)" stroke-width="3" fill="none" stroke-linejoin="round"/>
  <path d="M 220 80 L 230 150 L 215 180" stroke="url(#grad1)" stroke-width="3" fill="none" stroke-linejoin="round"/>
  
  <!-- Ojos -->
  <ellipse cx="110" cy="130" rx="12" ry="18" stroke="url(#grad1)" stroke-width="3" fill="none"/>
  <ellipse cx="190" cy="130" rx="12" ry="18" stroke="url(#grad1)" stroke-width="3" fill="none"/>
  <circle cx="110" cy="132" r="6" fill="#2D3748"/>
  <circle cx="190" cy="132" r="6" fill="#2D3748"/>
  
  <!-- Nariz -->
  <path d="M 145 155 L 150 165 L 155 155 Z" fill="#2D3748"/>
  
  <!-- Boca -->
  <path d="M 150 165 Q 130 175 115 165" stroke="url(#grad1)" stroke-width="2.5" fill="none" stroke-linecap="round"/>
  <path d="M 150 165 Q 170 175 185 165" stroke="url(#grad1)" stroke-width="2.5" fill="none" stroke-linecap="round"/>
  
  <!-- Bigotes -->
  <line x1="60" y1="145" x2="95" y2="150" stroke="#4A5568" stroke-width="1.5" stroke-linecap="round"/>
  <line x1="60" y1="155" x2="95" y2="155" stroke="#4A5568" stroke-width="1.5" stroke-linecap="round"/>
  <line x1="60" y1="165" x2="95" y2="160" stroke="#4A5568" stroke-width="1.5" stroke-linecap="round"/>
  
  <line x1="240" y1="145" x2="205" y2="150" stroke="#4A5568" stroke-width="1.5" stroke-linecap="round"/>
  <line x1="240" y1="155" x2="205" y2="155" stroke="#4A5568" stroke-width="1.5" stroke-linecap="round"/>
  <line x1="240" y1="165" x2="205" y2="160" stroke="#4A5568" stroke-width="1.5" stroke-linecap="round"/>
  
  <!-- Cuello/Pecho -->
  <path d="M 85 180 L 100 210 L 115 230" stroke="url(#grad1)" stroke-width="3" fill="none" stroke-linejoin="round"/>
  <path d="M 215 180 L 200 210 L 185 230" stroke="url(#grad1)" stroke-width="3" fill="none" stroke-linejoin="round"/>
  
  <!-- Línea central del pecho -->
  <path d="M 150 180 L 150 230" stroke="url(#grad1)" stroke-width="3" fill="none" stroke-linejoin="round"/>
  
  <!-- Base del pecho -->
  <path d="M 115 230 L 150 240 L 185 230" stroke="url(#grad1)" stroke-width="3" fill="none" stroke-linejoin="round"/>
  
  <!-- Líneas decorativas de conexión -->
  <path d="M 85 180 L 150 180 L 215 180" stroke="url(#grad1)" stroke-width="2" fill="none" opacity="0.6"/>
  <path d="M 100 210 L 150 210 L 200 210" stroke="url(#grad1)" stroke-width="2" fill="none" opacity="0.4"/>
</svg>
