<svg xmlns="http://www.w3.org/2000/svg" width="800" height="800" viewBox="0 0 800 800" role="img" aria-label="Diseños a medida">
  <defs>
    <linearGradient id="bg" x1="0" y1="0" x2="1" y2="1">
      <stop offset="0" stop-color="#ffffff"/>
      <stop offset="0.55" stop-color="#F8F9FA"/>
      <stop offset="1" stop-color="#ffffff"/>
    </linearGradient>
    <radialGradient id="blob1" cx="25%" cy="25%" r="55%">
      <stop offset="0" stop-color="#C0576F" stop-opacity="0.30"/>
      <stop offset="1" stop-color="#C0576F" stop-opacity="0"/>
    </radialGradient>
    <radialGradient id="blob2" cx="85%" cy="30%" r="60%">
      <stop offset="0" stop-color="#E3B679" stop-opacity="0.55"/>
      <stop offset="1" stop-color="#E3B679" stop-opacity="0"/>
    </radialGradient>
    <radialGradient id="blob3" cx="70%" cy="88%" r="65%">
      <stop offset="0" stop-color="#7F2F56" stop-opacity="0.20"/>
      <stop offset="1" stop-color="#7F2F56" stop-opacity="0"/>
    </radialGradient>

    <linearGradient id="table" x1="0" y1="0" x2="0" y2="1">
      <stop offset="0" stop-color="#ffffff"/>
      <stop offset="1" stop-color="#F1F5F9"/>
    </linearGradient>

    <linearGradient id="print" x1="0" y1="0" x2="1" y2="1">
      <stop offset="0" stop-color="#7F2F56"/>
      <stop offset="0.55" stop-color="#C0576F"/>
      <stop offset="1" stop-color="#E3B679"/>
    </linearGradient>

    <filter id="shadow" x="-30%" y="-30%" width="160%" height="160%">
      <feDropShadow dx="0" dy="18" stdDeviation="20" flood-color="#470C3B" flood-opacity="0.20"/>
    </filter>
    <filter id="soft" x="-30%" y="-30%" width="160%" height="160%">
      <feDropShadow dx="0" dy="10" stdDeviation="12" flood-color="#000000" flood-opacity="0.10"/>
    </filter>
  </defs>

  <!-- Minimal colorful studio background -->
  <rect width="800" height="800" fill="url(#bg)"/>
  <rect width="800" height="800" fill="url(#blob1)"/>
  <rect width="800" height="800" fill="url(#blob2)"/>
  <rect width="800" height="800" fill="url(#blob3)"/>

  <!-- Table / surface -->
  <path d="M0 565 C170 520 340 510 510 535 C650 555 740 590 800 620 L800 800 L0 800 Z" fill="url(#table)"/>

  <!-- Custom product hero (generic: a designed piece) -->
  <g filter="url(#shadow)">
    <ellipse cx="420" cy="620" rx="255" ry="64" fill="#111827" opacity="0.10"/>

    <!-- "sketch" card behind (suggest design process) -->
    <g filter="url(#soft)" opacity="0.95">
      <path d="M520 250 C565 250 600 285 600 330 V465 C600 510 565 545 520 545 H410 C365 545 330 510 330 465 V330 C330 285 365 250 410 250 Z" fill="#ffffff"/>
      <path d="M360 305 H570" stroke="#E5E7EB" stroke-width="8" stroke-linecap="round"/>
      <path d="M360 345 H540" stroke="#E5E7EB" stroke-width="8" stroke-linecap="round"/>
      <path d="M360 385 H560" stroke="#E5E7EB" stroke-width="8" stroke-linecap="round"/>
      <path d="M360 425 H515" stroke="#E5E7EB" stroke-width="8" stroke-linecap="round"/>
    </g>

    <!-- printed object in front -->
    <g filter="url(#soft)">
      <path d="M250 560 C250 505 285 455 340 430 C380 412 420 405 455 398 C475 392 488 372 490 350 C495 315 522 290 560 290 C610 290 645 330 640 380 C635 430 595 450 575 460 C542 477 525 515 525 560 C525 640 465 695 385 695 C305 695 250 640 250 560 Z" fill="url(#print)"/>
      <path d="M310 520 C335 485 375 465 415 460" fill="none" stroke="#ffffff" stroke-opacity="0.50" stroke-width="10" stroke-linecap="round"/>
      <path d="M295 565 C330 535 380 525 430 530" fill="none" stroke="#ffffff" stroke-opacity="0.30" stroke-width="8" stroke-linecap="round"/>
    </g>
  </g>
</svg>
