<svg xmlns="http://www.w3.org/2000/svg" width="800" height="800" viewBox="0 0 800 800" role="img" aria-label="Figuras - diseños predefinidos">
  <defs>
    <linearGradient id="bg" x1="0" y1="0" x2="1" y2="1">
      <stop offset="0" stop-color="#F8F9FA"/>
      <stop offset="0.55" stop-color="#ffffff"/>
      <stop offset="1" stop-color="#FAF7F5"/>
    </linearGradient>
    <radialGradient id="blob1" cx="30%" cy="25%" r="55%">
      <stop offset="0" stop-color="#E3B679" stop-opacity="0.55"/>
      <stop offset="1" stop-color="#E3B679" stop-opacity="0"/>
    </radialGradient>
    <radialGradient id="blob2" cx="80%" cy="55%" r="60%">
      <stop offset="0" stop-color="#C0576F" stop-opacity="0.35"/>
      <stop offset="1" stop-color="#C0576F" stop-opacity="0"/>
    </radialGradient>
    <radialGradient id="blob3" cx="25%" cy="85%" r="60%">
      <stop offset="0" stop-color="#7F2F56" stop-opacity="0.22"/>
      <stop offset="1" stop-color="#7F2F56" stop-opacity="0"/>
    </radialGradient>

    <linearGradient id="table" x1="0" y1="0" x2="0" y2="1">
      <stop offset="0" stop-color="#ffffff"/>
      <stop offset="1" stop-color="#F1F5F9"/>
    </linearGradient>

    <linearGradient id="print" x1="0" y1="0" x2="1" y2="1">
      <stop offset="0" stop-color="#7F2F56"/>
      <stop offset="0.55" stop-color="#C0576F"/>
      <stop offset="1" stop-color="#E3B679"/>
    </linearGradient>
    <filter id="shadow" x="-30%" y="-30%" width="160%" height="160%">
      <feDropShadow dx="0" dy="18" stdDeviation="20" flood-color="#470C3B" flood-opacity="0.20"/>
    </filter>
    <filter id="soft" x="-30%" y="-30%" width="160%" height="160%">
      <feDropShadow dx="0" dy="10" stdDeviation="12" flood-color="#000000" flood-opacity="0.10"/>
    </filter>
  </defs>

  <!-- Minimal colorful studio background -->
  <rect width="800" height="800" fill="url(#bg)"/>
  <rect width="800" height="800" fill="url(#blob1)"/>
  <rect width="800" height="800" fill="url(#blob2)"/>
  <rect width="800" height="800" fill="url(#blob3)"/>

  <!-- Table / surface -->
  <path d="M0 560 C160 520 320 510 480 530 C620 550 720 585 800 620 L800 800 L0 800 Z" fill="url(#table)"/>
  <path d="M0 590 C180 555 340 545 500 565 C640 582 730 615 800 650" fill="none" stroke="#E5E7EB" stroke-width="6" opacity="0.6"/>

  <!-- Figurine group (predefined designs) -->
  <g filter="url(#shadow)">
    <!-- soft ground shadow -->
    <ellipse cx="400" cy="600" rx="210" ry="55" fill="#111827" opacity="0.10"/>

    <!-- left figurine -->
    <g transform="translate(0, 0)" filter="url(#soft)">
      <path d="M270 520 C240 500 235 465 255 440 C268 424 285 415 300 410 C293 392 298 372 315 360 C336 345 364 350 380 370 C392 386 392 405 386 420 C404 426 420 440 428 460 C439 488 427 520 400 540 C365 567 310 560 270 520 Z" fill="url(#print)"/>
      <path d="M292 404 C300 380 325 364 350 368" fill="none" stroke="#ffffff" stroke-opacity="0.55" stroke-width="8" stroke-linecap="round"/>
    </g>

    <!-- center figurine -->
    <g transform="translate(0, -10)" filter="url(#soft)">
      <path d="M360 520 C330 495 332 455 356 430 C373 412 394 402 412 398 C402 376 407 350 428 336 C455 318 492 325 512 350 C527 370 526 395 518 415 C543 426 564 446 574 472 C588 510 571 552 536 578 C490 615 415 602 360 520 Z" fill="url(#print)"/>
      <circle cx="450" cy="395" r="12" fill="#ffffff" opacity="0.6"/>
      <circle cx="485" cy="410" r="8" fill="#ffffff" opacity="0.5"/>
    </g>

    <!-- small right figurine -->
    <g transform="translate(20, 18)" filter="url(#soft)">
      <path d="M520 520 C500 505 498 480 513 462 C523 450 536 444 548 440 C543 425 545 410 556 401 C571 389 592 392 604 405 C613 416 614 430 610 442 C624 447 637 458 643 472 C651 494 641 520 622 536 C596 558 552 552 520 520 Z" fill="url(#print)" opacity="0.95"/>
    </g>
  </g>
</svg>
