<svg xmlns="http://www.w3.org/2000/svg" width="800" height="800" viewBox="0 0 800 800" role="img" aria-label="Figuras - diseños personalizados">
  <defs>
    <linearGradient id="bg" x1="0" y1="0" x2="1" y2="1">
      <stop offset="0" stop-color="#ffffff"/>
      <stop offset="0.55" stop-color="#F8F9FA"/>
      <stop offset="1" stop-color="#ffffff"/>
    </linearGradient>
    <radialGradient id="blob1" cx="25%" cy="20%" r="55%">
      <stop offset="0" stop-color="#C0576F" stop-opacity="0.35"/>
      <stop offset="1" stop-color="#C0576F" stop-opacity="0"/>
    </radialGradient>
    <radialGradient id="blob2" cx="85%" cy="30%" r="60%">
      <stop offset="0" stop-color="#E3B679" stop-opacity="0.55"/>
      <stop offset="1" stop-color="#E3B679" stop-opacity="0"/>
    </radialGradient>
    <radialGradient id="blob3" cx="70%" cy="82%" r="65%">
      <stop offset="0" stop-color="#7F2F56" stop-opacity="0.22"/>
      <stop offset="1" stop-color="#7F2F56" stop-opacity="0"/>
    </radialGradient>

    <linearGradient id="table" x1="0" y1="0" x2="0" y2="1">
      <stop offset="0" stop-color="#ffffff"/>
      <stop offset="1" stop-color="#F1F5F9"/>
    </linearGradient>

    <linearGradient id="print" x1="0" y1="0" x2="1" y2="1">
      <stop offset="0" stop-color="#7F2F56"/>
      <stop offset="0.55" stop-color="#C0576F"/>
      <stop offset="1" stop-color="#E3B679"/>
    </linearGradient>

    <filter id="shadow" x="-30%" y="-30%" width="160%" height="160%">
      <feDropShadow dx="0" dy="18" stdDeviation="20" flood-color="#470C3B" flood-opacity="0.20"/>
    </filter>
    <filter id="soft" x="-30%" y="-30%" width="160%" height="160%">
      <feDropShadow dx="0" dy="10" stdDeviation="12" flood-color="#000000" flood-opacity="0.10"/>
    </filter>
  </defs>

  <!-- Minimal colorful studio background -->
  <rect width="800" height="800" fill="url(#bg)"/>
  <rect width="800" height="800" fill="url(#blob1)"/>
  <rect width="800" height="800" fill="url(#blob2)"/>
  <rect width="800" height="800" fill="url(#blob3)"/>

  <!-- Table / surface -->
  <path d="M0 565 C170 520 340 510 510 535 C650 555 740 590 800 620 L800 800 L0 800 Z" fill="url(#table)"/>

  <!-- Single custom figurine hero shot -->
  <g filter="url(#shadow)">
    <ellipse cx="420" cy="610" rx="235" ry="60" fill="#111827" opacity="0.10"/>

    <!-- pedestal -->
    <g filter="url(#soft)">
      <path d="M260 560 C265 520 290 495 335 485 H515 C560 495 585 520 590 560 C595 605 575 640 530 650 H320 C275 640 255 605 260 560 Z" fill="#ffffff"/>
      <path d="M290 545 C295 525 312 512 340 505 H510 C538 512 555 525 560 545" fill="none" stroke="#E5E7EB" stroke-width="6" opacity="0.9"/>
    </g>

    <!-- figurine body (rounded, glossy) -->
    <g filter="url(#soft)">
      <path d="M355 500 C330 470 330 420 365 392 C388 374 418 365 444 365 C475 365 507 378 528 402 C560 440 555 492 520 525 C485 560 400 565 355 500 Z" fill="url(#print)"/>
      <!-- subtle highlight -->
      <path d="M402 392 C420 382 456 382 478 392" fill="none" stroke="#ffffff" stroke-opacity="0.55" stroke-width="10" stroke-linecap="round"/>
      <path d="M388 420 C402 410 430 405 448 408" fill="none" stroke="#ffffff" stroke-opacity="0.35" stroke-width="8" stroke-linecap="round"/>
    </g>
  </g>

  <!-- Minimal plant blob to suggest environment -->
  <g opacity="0.75">
    <path d="M120 640 C150 600 190 585 220 595 C250 605 260 640 245 675 C230 710 185 725 150 705 C115 685 95 665 120 640 Z" fill="#E3B679" opacity="0.35"/>
    <path d="M130 650 C150 625 175 615 195 620" fill="none" stroke="#7F2F56" stroke-width="6" opacity="0.35" stroke-linecap="round"/>
  </g>
</svg>
